# xmcd
#
# Track frame offsets: 
#        150
#        19739
#        41225
#        54039
#        67144
#        89147
#        102354
#        117844
#        136519
#        151378
#        165870
#        181594
#        195049
#        212189
#        221729
#        247102
#
# Disc length: 4440 seconds
#
# Revision: 1
# Processed by: cddbd v1.5.2PL0 Copyright (c) Steve Scherf et al.
# Submitted via: ExactAudioCopy v0.99pb5
#
DISCID=d6115610
DTITLE=Various Artist - The Best Pop Album Of The 70's...Ever! [Disc 1]
DYEAR=2003
DGENRE=Rock
TTITLE0=The Hollies - He Ain't Heavy, He's My Brother
TTITLE1=Sly and The Family Stone - Thank You (Falettinme Be Mice Elf Agi
TTITLE1=n)
TTITLE2=Edison Lighthouse - Love Grows (Where My Rosemary Goes)
TTITLE3=Bobby Sherman - Julie, Do You Love Me
TTITLE4=Chicago - 25 Or 6 To 4
TTITLE5=Ocean - Put Your Hand In The Hand
TTITLE6=The Stampeders - Sweet City Woman
TTITLE7=Don McLean - American Pie
TTITLE8=Al Green - Let's Stay Together
TTITLE9=Edward Bear - Last Song
TTITLE10=Terry Jacks - Seasons In The Sun
TTITLE11=Grand Funk Railroad - The Loco-Motion
TTITLE12=Harry Chapin - Cat's In The Cradle
TTITLE13=Linda Ronstadt - When Will I Be Loved
TTITLE14=Pilot - Magic
TTITLE15=data
EXTD=YEAR: 2003
EXTT0=
EXTT1=
EXTT2=
EXTT3=
EXTT4=
EXTT5=
EXTT6=
EXTT7=
EXTT8=
EXTT9=
EXTT10=
EXTT11=
EXTT12=
EXTT13=
EXTT14=
EXTT15=
PLAYORDER=
